<svg width="720" height="520" viewBox="0 0 720 520" fill="none" xmlns="http://www.w3.org/2000/svg">
  <defs>
    <linearGradient id="bg" x1="0" y1="0" x2="720" y2="520" gradientUnits="userSpaceOnUse">
      <stop stop-color="#F4F1EA"/>
      <stop offset="1" stop-color="#E7EEF4"/>
    </linearGradient>
    <filter id="shadow" x="120" y="24" width="480" height="472" filterUnits="userSpaceOnUse">
      <feDropShadow dx="0" dy="18" stdDeviation="20" flood-color="#3D4A57" flood-opacity="0.18"/>
    </filter>
  </defs>

  <rect width="720" height="520" fill="url(#bg)"/>
  <text x="56" y="72" fill="#22313F" font-family="Georgia, serif" font-size="34" font-weight="700">Corpus Scribe popup</text>
  <text x="56" y="104" fill="#50606F" font-family="Arial, sans-serif" font-size="18">Capture an article or PDF into a labeled markdown bundle.</text>

  <g filter="url(#shadow)">
    <rect x="176" y="50" width="368" height="396" rx="24" fill="#FFFFFF"/>
  </g>

  <text x="208" y="96" fill="#18212A" font-family="Arial, sans-serif" font-size="26" font-weight="700">Corpus Scribe</text>

  <text x="208" y="134" fill="#566575" font-family="Arial, sans-serif" font-size="15">Label</text>
  <rect x="208" y="144" width="304" height="42" rx="10" fill="#F5F7F9" stroke="#D4DCE4"/>
  <text x="224" y="171" fill="#1F2D3A" font-family="Arial, sans-serif" font-size="16">agents</text>

  <text x="208" y="220" fill="#566575" font-family="Arial, sans-serif" font-size="15">Page size</text>
  <rect x="208" y="230" width="304" height="42" rx="10" fill="#F5F7F9" stroke="#D4DCE4"/>
  <text x="224" y="257" fill="#1F2D3A" font-family="Arial, sans-serif" font-size="16">A5 (Kindle)</text>

  <rect x="208" y="294" width="304" height="62" rx="12" fill="#F7F5EF" stroke="#E2D7B8"/>
  <text x="224" y="320" fill="#6E5A1E" font-family="Arial, sans-serif" font-size="15" font-weight="700">Detected: PDF</text>
  <text x="224" y="343" fill="#705F2F" font-family="Arial, sans-serif" font-size="14">Extraction: Mistral OCR</text>

  <rect x="208" y="376" width="304" height="46" rx="12" fill="#1E6CE1"/>
  <text x="290" y="405" fill="#FFFFFF" font-family="Arial, sans-serif" font-size="16" font-weight="700">Send to Kindle</text>

  <rect x="208" y="430" width="304" height="46" rx="12" fill="#E9EDF1"/>
  <text x="292" y="459" fill="#22313F" font-family="Arial, sans-serif" font-size="16" font-weight="700">Save PDF + MD</text>

  <path d="M565 146C609 162 636 202 638 244C640 289 615 332 573 346" stroke="#C46A2C" stroke-width="4" stroke-linecap="round"/>
  <path d="M574 336L563 348L578 353" stroke="#C46A2C" stroke-width="4" stroke-linecap="round" stroke-linejoin="round"/>
  <rect x="574" y="88" width="102" height="82" rx="14" fill="#FFF8ED" stroke="#E6C487"/>
  <text x="592" y="116" fill="#9B5D14" font-family="Arial, sans-serif" font-size="14" font-weight="700">What matters</text>
  <text x="592" y="138" fill="#7A6538" font-family="Arial, sans-serif" font-size="12">Detects article vs PDF</text>
  <text x="592" y="156" fill="#7A6538" font-family="Arial, sans-serif" font-size="12">Shows OCR path</text>

  <rect x="42" y="190" width="110" height="96" rx="16" fill="#EEF5FB" stroke="#BED2E6"/>
  <text x="58" y="218" fill="#2A4E70" font-family="Arial, sans-serif" font-size="14" font-weight="700">Label-first</text>
  <text x="58" y="240" fill="#47657F" font-family="Arial, sans-serif" font-size="12">Save into</text>
  <text x="58" y="258" fill="#47657F" font-family="Arial, sans-serif" font-size="12">a stable corpus</text>
  <text x="58" y="276" fill="#47657F" font-family="Arial, sans-serif" font-size="12">folder layout</text>
</svg>
